<svg xmlns="http://www.w3.org/2000/svg" viewBox="0 0 350 350"><defs><style>.cls-1,.cls-2{fill:#fff;}.cls-1{opacity:0.5;}.cls-2{opacity:0.75;}</style></defs><title>pebl-icons-light</title><g id="Annotations_List" data-name="Annotations List"><path class="cls-1" d="M237.27,2.5H12.73C6.53,2.5,1.5,6,1.5,10.25v15.5c0,4.28,5,7.75,11.23,7.75H237.27c6.2,0,11.23-3.47,11.23-7.75V10.25C248.5,6,243.47,2.5,237.27,2.5Z"/><polygon class="cls-1" points="6.11 327.68 68.63 347.71 90.81 325.53 48.86 283.58 6.11 327.68"/><path class="cls-2" d="M338.93,78.67,299.39,39.12a34.35,34.35,0,0,0-47-1.47L127.84,144l-15.28,13-26,22.18a22.91,22.91,0,0,0-6.75,23.84L88,229.85,56.13,261.73l60.21,60.21,31.82-31.82,26.75,8.18a22.9,22.9,0,0,0,23.87-6.75L221,265.5l13-15.27L340.4,125.68A34.34,34.34,0,0,0,338.93,78.67Z"/><path class="cls-1" d="M88.07,179.67l26.42-22.55,1.9-1.62H12C5.63,155.5.5,159,.5,163.25v15.5C.5,183,5.63,186.5,12,186.5H82.77A23.39,23.39,0,0,1,88.07,179.67Z"/><path class="cls-1" d="M203.94,79.5H11.77C5.55,79.5.5,83,.5,87.25v15.5c0,4.28,5.05,7.75,11.27,7.75H168.2Z"/></g></svg>