<svg xmlns="http://www.w3.org/2000/svg" viewBox="0 0 350 350"><defs><style>.cls-1{opacity:0.5;}.cls-2{opacity:0.75;}</style></defs><title>pebl-icons-wip</title><g id="New_Annotation" data-name="New Annotation"><polygon class="cls-1" points="-0.3 322.72 63.6 343.2 86.28 320.53 43.4 277.65 -0.3 322.72"/><path class="cls-2" d="M337.36,66.43,296.93,26a35.11,35.11,0,0,0-48-1.5L218.25,50.66A121,121,0,0,1,78,223.79L48.27,253.56l61.55,61.54,32.53-32.53,27.33,8.37a23.42,23.42,0,0,0,24.41-6.89l22.73-26.64,13.34-15.61,108.7-127.32A35.1,35.1,0,0,0,337.36,66.43Z"/><path class="cls-1" d="M177.87,91H128V41.13A11.13,11.13,0,0,0,116.87,30H106.13A11.13,11.13,0,0,0,95,41.13V91H45.13A11.13,11.13,0,0,0,34,102.13v10.74A11.13,11.13,0,0,0,45.13,124H95v49.87A11.13,11.13,0,0,0,106.13,185h11.05a11.09,11.09,0,0,0,11.09-11.09L130.19,124h47.68A11.13,11.13,0,0,0,189,112.87V102.13A11.13,11.13,0,0,0,177.87,91Z"/></g></svg>