<?xml version="1.0" encoding="utf-8"?>
<!-- Generator: Adobe Illustrator 24.0.2, SVG Export Plug-In . SVG Version: 6.00 Build 0)  -->
<svg version="1.1" id="Layer_1" xmlns="http://www.w3.org/2000/svg" xmlns:xlink="http://www.w3.org/1999/xlink" x="0px" y="0px"
	 viewBox="0 0 350 350" style="enable-background:new 0 0 350 350;" xml:space="preserve">
<style type="text/css">
	.st0{opacity:0.75;}
</style>
<title>pebl-icons-wip</title>
<g id="Search">
	<path class="st0" d="M252.6,226.4h-11.9l-5.7-5.5c20.6-23.9,31.9-54.3,31.9-85.9C266.9,62.1,207.9,3,135,3C62.2,3,3,62.1,3,135
		C3,207.2,61.7,266.5,134,267c33.1,0.3,63.5-11.8,87-31.9l5.5,5.7v11.9c0,2.7,1.1,5.2,3,7.1l86,85.9c0,0,12.2-1.5,21.8-11.2
		s8.4-19,8.4-19l-85.8-86.2C257.9,227.5,255.3,226.4,252.6,226.4z M135,226.4c-50.6,0-91.4-40.8-91.4-91.4S84.4,43.7,135,43.7
		s91.4,40.8,91.4,91.4S185.5,226.4,135,226.4z"/></g>
</svg>
