<svg xmlns="http://www.w3.org/2000/svg" viewBox="0 0 350 350"><defs><style>.cls-1{opacity:0.75;}.cls-2{opacity:0.5;}</style></defs><title>pebl-icons-wip</title><g id="Layer_1" data-name="Layer 1"><path class="cls-1" d="M278.4,125.19l-11.84-11.84a7.16,7.16,0,0,0-10.32.12l-66.3,68.3V31.53a7.27,7.27,0,0,0-7.25-7.24H165.78a7.26,7.26,0,0,0-7.24,7.24V181.77L92.3,113.47A7.28,7.28,0,0,0,82,113.35L70.14,125.19a7.24,7.24,0,0,0,0,10.26l99,99.27a7.25,7.25,0,0,0,10.27,0l99-99.27a7.32,7.32,0,0,0-.06-10.26Z"/></g><g id="Layer_2" data-name="Layer 2"><path class="cls-2" d="M7.4,263v-56.6a8.1,8.1,0,0,1,8.08-8.09H31.65a8.11,8.11,0,0,1,8.09,8.09V263a32.35,32.35,0,0,0,32.34,32.34l205.55.44A32.34,32.34,0,0,0,310,263.39v-56.6a8.11,8.11,0,0,1,8.09-8.09h16.17a8.11,8.11,0,0,1,8.09,8.09v56.6a64.71,64.71,0,0,1-64.69,64.69l-205.55-.45A64.7,64.7,0,0,1,7.4,263Z"/></g></svg>