<svg id="Layer_1" data-name="Layer 1" xmlns="http://www.w3.org/2000/svg" viewBox="0 0 350 350"><defs><style>.cls-1{opacity:0.75;}</style></defs><title>pebl-icons-wip</title><g class="cls-1"><path d="M37,23.76a10,10,0,0,0-10,10V313.58a10,10,0,0,0,10,10H320.1a10,10,0,0,0,10-10V33.76a10,10,0,0,0-10-10Zm58,235.51a19.64,19.64,0,1,1,19.64-19.64A19.64,19.64,0,0,1,95.05,259.27Zm0-65.46a19.64,19.64,0,1,1,19.64-19.64A19.64,19.64,0,0,1,95.05,193.81Zm0-65.46a19.64,19.64,0,1,1,19.64-19.64A19.65,19.65,0,0,1,95.05,128.35ZM284.89,239.63c0,3.6-.66,8-1.47,9.82s-9.58,3.27-15.08,3.27H157.42c-5.5,0-11.47-.66-13.27-1.46s-3.28-8-3.28-11.63.66-8,1.47-9.82,9.58-3.27,15.08-3.27H268.34c5.5,0,11.48.66,13.28,1.46S284.89,236,284.89,239.63Zm0-65.46c0,3.6-.66,8-1.47,9.82s-9.58,3.27-15.08,3.27H157.42c-5.5,0-11.47-.66-13.27-1.46s-3.28-8-3.28-11.63.66-8,1.47-9.82,9.58-3.27,15.08-3.27H268.34c5.5,0,11.48.66,13.28,1.46S284.89,170.57,284.89,174.17Zm0-65.46c0,3.6-.66,8-1.47,9.82s-9.58,3.27-15.08,3.27H157.42c-5.5,0-11.47-.66-13.27-1.46s-3.28-8-3.28-11.63.66-8,1.47-9.82,9.58-3.27,15.08-3.27H268.34c5.5,0,11.48.66,13.28,1.46S284.89,105.11,284.89,108.71Z"/></g></svg>