<svg id="Layer_1" data-name="Layer 1" xmlns="http://www.w3.org/2000/svg" viewBox="0 0 350 350"><defs><style>.cls-1{fill:#666;}.cls-2{fill:#fff;}</style></defs><title>pebl-icons-wip</title><path class="cls-1" d="M106.24,345.34v-261c0-14.91,13-27,29.05-27H309.55c16,0,29.05,12.09,29.05,27v261l-116.18-63Z"/><circle class="cls-2" cx="119.41" cy="115.42" r="110.77"/><path class="cls-1" d="M180.57,100.12H134.7V54.25a10.19,10.19,0,0,0-10.19-10.19h-10.2a10.19,10.19,0,0,0-10.19,10.19v45.87H58.25a10.2,10.2,0,0,0-10.2,10.2v10.19a10.2,10.2,0,0,0,10.2,10.2h45.87v45.87a10.19,10.19,0,0,0,10.19,10.19h10.2a10.19,10.19,0,0,0,10.19-10.19l1.76-45.87h44.11a10.2,10.2,0,0,0,10.2-10.2V110.32A10.2,10.2,0,0,0,180.57,100.12Z"/></svg>