<svg xmlns="http://www.w3.org/2000/svg" viewBox="0 0 350 350"><defs><style>.cls-1{opacity:0.75;}.cls-2{opacity:0.5;}</style></defs><title>pebl-icons-wip</title><g id="Settings"><path class="cls-1" d="M347.46,109.61a7.13,7.13,0,0,0-12-3.28l-44.22,44.22-40.37-6.73-6.72-40.36,44.22-44.22a7.15,7.15,0,0,0-3.37-12,85.58,85.58,0,0,0-81.22,22.56c-23.57,23.57-30,57.74-20.24,87.53L56.69,284.23a38.05,38.05,0,0,0,53.81,53.82L237.29,211.26c29.8,9.94,63.9,3.38,87.63-20.35A85.59,85.59,0,0,0,347.46,109.61Z"/><path class="cls-2" d="M89,207.21v22.88a5.72,5.72,0,0,0,4.48,5.58c3.1.69,6.21,1.24,9.32,1.68L183,157.16c-9.73-29.55-3.3-63.43,20.08-86.81A84.77,84.77,0,0,1,219.72,57.4a119.42,119.42,0,0,0-13.35-17.47,5.74,5.74,0,0,0-7.05-1.1L179,50.57a89.91,89.91,0,0,0-29-16.74V9.4a5.81,5.81,0,0,0-4.55-5.67,121.8,121.8,0,0,0-52.9,0A5.81,5.81,0,0,0,88,9.4V33S68.5,42.55,60,49.91L40,38.08a5.51,5.51,0,0,0-7,1.1A119.63,119.63,0,0,0,7.26,84.68a5.81,5.81,0,0,0,2.59,6.73l20.07,11.83a94.8,94.8,0,0,0,0,33.76L9.85,148.83a5.87,5.87,0,0,0-2.59,6.73A120.38,120.38,0,0,0,33,201.06a5.58,5.58,0,0,0,7,1.1l20.07-11.83C68.5,197.74,89,207.21,89,207.21ZM119.53,81.6a38.47,38.47,0,1,1-38.48,38.47A38.52,38.52,0,0,1,119.53,81.6Z"/></g></svg>