<svg role="img" aria-labelledby="Download Pebl"
xmlns="http://www.w3.org/2000/svg" viewBox="0 0 350 350"><defs>
<style>.cls-1{opacity:0.75;}.cls-2{opacity:0.5;}</style></defs>
<title>Download PeBL</title><g id="download-pebl"><path class="cls-1" d="M277.34,116.9l-11.69-11.84a7,7,0,0,0-10.19.12L190,173.48V23.25A7.27,7.27,0,0,0,182.75,16h-16.5A7.27,7.27,0,0,0,159,23.25V173.48l-65.4-68.3a7.12,7.12,0,0,0-10.19-.12L71.72,116.9a7.32,7.32,0,0,0,0,10.26l97.77,99.27a7.1,7.1,0,0,0,10.14,0l97.77-99.27a7.37,7.37,0,0,0-.06-10.26Z"/><path class="cls-2" d="M8,254.55V198.09A8.11,8.11,0,0,1,16.09,190H31.91A8.11,8.11,0,0,1,40,198.09v56.43A32.41,32.41,0,0,0,72.32,287l205.36.45A32.41,32.41,0,0,0,310,255V198.09a8.11,8.11,0,0,1,8.09-8.09h15.82a8.11,8.11,0,0,1,8.09,8.09V255c0,35.89-28.89,65-64.51,65l-205-.45C36.89,319.55,8,290.44,8,254.55Z"/></g></svg>