<svg id="Layer_1" data-name="Layer 1" xmlns="http://www.w3.org/2000/svg" viewBox="0 0 350 350"><defs><style>.cls-1{opacity:0.75;}.cls-2{opacity:0.5;}</style></defs><title>pebl-icons-wip</title><path class="cls-1" d="M309.55,57.32H213.73a110.77,110.77,0,0,1-94.32,168.86,112.23,112.23,0,0,1-13.17-.78V345.34l116.18-63,116.18,63v-261C338.6,69.41,325.59,57.32,309.55,57.32Z"/><path class="cls-2" d="M180.57,100.12H134.7V54.25a10.19,10.19,0,0,0-10.19-10.19h-10.2a10.19,10.19,0,0,0-10.19,10.19v45.87H58.25a10.2,10.2,0,0,0-10.2,10.2v10.19a10.2,10.2,0,0,0,10.2,10.2h45.87v45.87a10.19,10.19,0,0,0,10.19,10.19h10.2a10.19,10.19,0,0,0,10.19-10.19l1.76-45.87h44.11a10.2,10.2,0,0,0,10.2-10.2V110.32A10.2,10.2,0,0,0,180.57,100.12Z"/></svg>