<svg role="img" aria-labelledby="PeBL Logout" 
xmlns="http://www.w3.org/2000/svg" viewBox="0 0 350 350"><defs>
<style>.cls-1{opacity:0.5;}.cls-2{opacity:0.75;}</style></defs>
<title>PeBL Logout</title><g id="pebl-logout"><path class="cls-1" d="M67.59,48h55.46a8,8,0,0,1,8,8v15.1a8,8,0,0,1-8,8H67.8A31.8,31.8,0,0,0,36,110.8V238.2A31.8,31.8,0,0,0,67.8,270h55.25a8,8,0,0,1,8,7.95v16.1a8,8,0,0,1-8,7.95H67.59A63.59,63.59,0,0,1,4,238.41V111.59A63.59,63.59,0,0,1,67.59,48Z"/><path class="cls-2" d="M220.5,60.65l-13,13A7.87,7.87,0,0,0,207.65,85l74.92,73H117.76a7.27,7.27,0,0,0-7.76,7.64v18.55a7.5,7.5,0,0,0,7.76,7.81H282.57l-74.92,72.81a8,8,0,0,0-.13,11.32l13,13a8,8,0,0,0,11.26,0l108.9-108.64a7.94,7.94,0,0,0,0-11.26L231.76,60.58a8,8,0,0,0-11.26.07Z"/></g></svg>