<svg xmlns="http://www.w3.org/2000/svg" viewBox="0 0 350 350"><defs><style>.cls-1,.cls-2{fill:#fff;}.cls-1{opacity:0.5;}.cls-2{opacity:0.75;}</style></defs><title>pebl-icons-light</title><g id="Upload_Book" data-name="Upload Book"><path class="cls-1" d="M169.75,266l9.8,9.85a5.92,5.92,0,0,0,8.55-.1L243,219V344a6,6,0,0,0,6,6H263a6,6,0,0,0,6-6V219l54.85,56.83a6,6,0,0,0,8.55.1l9.8-9.85a6.05,6.05,0,0,0,0-8.54l-82-82.61a6,6,0,0,0-8.5,0l-82,82.61a6.1,6.1,0,0,0,.05,8.54Z"/><path class="cls-2" d="M158.66,320h-90a22,22,0,0,1-21.57-26.4C49,283.87,59.09,276,69,276h75.65a114.48,114.48,0,0,1-1.1-15.81A112.77,112.77,0,0,1,320,166.94V13A11,11,0,0,0,309.05,2H68.75A54.75,54.75,0,0,0,14,56.75v240.5A54.75,54.75,0,0,0,68.75,352H188.43c-.55-.42-1.07-.86-1.61-1.29A112.11,112.11,0,0,1,158.66,320Z"/></g></svg>