<svg role="img" aria-labelledby="Upload book" xmlns="http://www.w3.org/2000/svg" viewBox="0 0 350 350">
<defs><style>.cls-1{opacity:0.75;}</style></defs>
<title>Upload Book</title><g id="upload-book" data-name="Layer 2"><path class="cls-1" d="M282.81,296.29h-56.6a8.11,8.11,0,0,1-8.09-8.09V272a8.11,8.11,0,0,1,8.09-8.08h56.6a32.36,32.36,0,0,0,32.35-32.35V102.23a32.36,32.36,0,0,0-32.35-32.35h-56.6a8.1,8.1,0,0,1-8.09-8.08V45.63a8.11,8.11,0,0,1,8.09-8.09h56.6a64.71,64.71,0,0,1,64.69,64.69V231.6A64.7,64.7,0,0,1,282.81,296.29ZM115.1,50.68,101.89,63.89A8,8,0,0,0,102,75.41l76.21,74H10.59a8.1,8.1,0,0,0-8.09,8.08v18.87a8.11,8.11,0,0,0,8.09,8.09H178.23L102,258.35a8.13,8.13,0,0,0-.13,11.53l13.21,13.2a8.08,8.08,0,0,0,11.45,0l110.78-110.5a8.09,8.09,0,0,0,0-11.46L126.55,50.61a8.15,8.15,0,0,0-11.45.07Z"/></g></svg>