<svg id="Layer_1" data-name="Layer 1" xmlns="http://www.w3.org/2000/svg" viewBox="0 0 350 350"><defs><style>.cls-1{fill:#666;}.cls-2{fill:#fff;}</style></defs><title>pebl-icons-wip</title><polygon class="cls-1" points="18.31 320.42 79.24 339.94 100.85 318.33 59.98 277.45 18.31 320.42"/><path class="cls-1" d="M340.19,76.1,301.66,37.56a33.47,33.47,0,0,0-45.8-1.43L134.49,139.76l-14.88,12.71L94.29,174.08a22.3,22.3,0,0,0-6.58,23.23l8,26.11-31,31.06,58.67,58.68,31-31,26.06,8a22.32,22.32,0,0,0,23.26-6.57l21.67-25.39L238,243.28,341.63,121.91A33.47,33.47,0,0,0,340.19,76.1Z"/><circle class="cls-2" cx="124.89" cy="115.29" r="115.29"/><path class="cls-1" d="M188.55,99.38H140.81V51.63A10.61,10.61,0,0,0,130.2,41H119.59A10.62,10.62,0,0,0,109,51.63V99.38H61.23A10.61,10.61,0,0,0,50.62,110V120.6a10.61,10.61,0,0,0,10.61,10.61H109V179a10.62,10.62,0,0,0,10.62,10.61H130.2A10.61,10.61,0,0,0,140.81,179l1.83-47.75h45.91a10.62,10.62,0,0,0,10.62-10.61V110A10.62,10.62,0,0,0,188.55,99.38Z"/></svg>