<svg id="Layer_1" data-name="Layer 1" xmlns="http://www.w3.org/2000/svg" viewBox="0 0 350 350"><defs><style>.cls-1,.cls-2{fill:#666;stroke-miterlimit:10;}.cls-1{stroke:#fff;stroke-width:5px;}.cls-2{stroke:#666;}</style></defs><title>pebl-icons-wip</title><path class="cls-1" d="M117.21,345.5V92.39c0-14.46,12.61-26.18,28.16-26.18h169c15.56,0,28.17,11.72,28.17,26.18V345.5L229.87,284.4Z"/><path class="cls-2" d="M237.57,159.84H23.93c-5.9,0-10.68,3.24-10.68,7.24v14.48c0,4,4.78,7.25,10.68,7.25H237.57c5.89,0,10.68-3.25,10.68-7.25V167.08C248.25,163.08,243.46,159.84,237.57,159.84Z"/><path class="cls-2" d="M237.57,15H23.93c-5.9,0-10.68,3.24-10.68,7.24V36.72c0,4,4.78,7.24,10.68,7.24H237.57c5.89,0,10.68-3.24,10.68-7.24V22.23C248.25,18.23,243.46,15,237.57,15Z"/><path class="cls-2" d="M237.57,87.41H23.93c-5.9,0-10.68,3.24-10.68,7.24v14.49c0,4,4.78,7.24,10.68,7.24H237.57c5.89,0,10.68-3.24,10.68-7.24V94.65C248.25,90.65,243.46,87.41,237.57,87.41Z"/></svg>