<svg xmlns="http://www.w3.org/2000/svg" viewBox="0 0 350 350"><defs><style>.cls-1{opacity:0.75;}</style></defs><title>pebl-icons-wip</title><g id="Table_of_Contents" data-name="Table of Contents"><g class="cls-1"><path d="M13,5A10,10,0,0,0,3,15V335a10,10,0,0,0,10,10H337a10,10,0,0,0,10-10V15A10,10,0,0,0,337,5ZM80.21,272a22.29,22.29,0,1,1,22.29-22.29A22.29,22.29,0,0,1,80.21,272Zm0-74.3a22.29,22.29,0,1,1,22.29-22.29A22.29,22.29,0,0,1,80.21,197.71Zm0-74.3a22.29,22.29,0,1,1,22.29-22.29A22.29,22.29,0,0,1,80.21,123.41ZM291.29,263.34c-2.05.91-8.22,1.66-13.72,1.66H149.43c-5.5,0-11.67-.75-13.72-1.66S132,254.16,132,250s.75-9.24,1.66-11.29S143.93,235,149.43,235H277.57c5.5,0,11.67.75,13.72,1.66S295,245.84,295,250,293.33,262.42,291.29,263.34Zm0-74c-2.05.91-8.22,1.66-13.72,1.66H149.43c-5.5,0-11.67-.75-13.72-1.66S132,180.16,132,176s.75-9.24,1.66-11.29S143.93,161,149.43,161H277.57c5.5,0,11.67.75,13.72,1.66S295,171.84,295,176,293.33,188.42,291.29,189.34Zm0-75c-2.05.91-8.22,1.66-13.72,1.66H149.43c-5.5,0-11.67-.75-13.72-1.66S132,105.16,132,101s.75-9.24,1.66-11.29S143.93,86,149.43,86H277.57c5.5,0,11.67.75,13.72,1.66S295,96.84,295,101,293.33,113.42,291.29,114.34Z"/></g></g></svg>