<svg xmlns="http://www.w3.org/2000/svg" viewBox="0 0 350 350"><defs><style>.cls-1{stroke:#666;stroke-miterlimit:10;opacity:0.5;}.cls-2{opacity:0.75;}</style></defs><title>pebl-icons-wip</title><g id="Layer_1" data-name="Layer 1"><path class="cls-1" d="M237.65,16.59h-214c-5.91,0-10.7,3.25-10.7,7.25V38.32c0,4,4.79,7.24,10.7,7.24h214c5.91,0,10.71-3.24,10.71-7.24V23.84C248.36,19.84,243.56,16.59,237.65,16.59Z"/></g><g id="Layer_2" data-name="Layer 2"><polygon class="cls-1" points="18.28 325.1 77.69 344.14 98.76 323.06 58.9 283.2 18.28 325.1"/><path class="cls-2" d="M334.54,88.48,297,50.9a32.65,32.65,0,0,0-44.67-1.4L134,150.56,119.43,163,94.75,184a21.75,21.75,0,0,0-6.42,22.65l7.76,25.46L65.81,262.43,123,319.65l30.24-30.24,25.42,7.77a21.74,21.74,0,0,0,22.68-6.41L222.5,266l12.39-14.52L335.94,133.15A32.63,32.63,0,0,0,334.54,88.48Z"/><path class="cls-1" d="M94.75,184,119.43,163l1.78-1.51H23.61c-5.91,0-10.7,3.24-10.7,7.24v14.49c0,4,4.79,7.24,10.7,7.24H89.79A21.6,21.6,0,0,1,94.75,184Z"/><path class="cls-1" d="M206,89H23.61c-5.91,0-10.7,3.24-10.7,7.24v14.48c0,4,4.79,7.25,10.7,7.25H172.1Z"/></g></svg>