<svg role="img" aria-labelledby="PeBL Login" xmlns="http://www.w3.org/2000/svg" viewBox="0 0 350 350">
<defs><style>.cls-1{opacity:0.5;}.cls-2{opacity:0.75;}</style></defs>
<title>Login</title><g id="pebl-login"><path class="cls-1" d="M282.31,305H226.09a8.11,8.11,0,0,1-8.09-8.09V281.09a8.11,8.11,0,0,1,8.09-8.09h56.57A32.34,32.34,0,0,0,315,240.66V111.34A32.34,32.34,0,0,0,282.66,79H226.09A8.11,8.11,0,0,1,218,70.91V54.09A8.11,8.11,0,0,1,226.09,46h56.22A64.69,64.69,0,0,1,347,110.69V240.31A64.69,64.69,0,0,1,282.31,305Z"/><path class="cls-2" d="M115.47,59.39l-13.19,13.2a8,8,0,0,0,.13,11.51L178.54,158H11.09A8.11,8.11,0,0,0,3,166.09v18.82A8.11,8.11,0,0,0,11.09,193H178.54l-76.13,73.84a8.11,8.11,0,0,0-.13,11.51l13.19,13.19a8.09,8.09,0,0,0,11.44,0L237.57,181.15a8.09,8.09,0,0,0,0-11.44L126.91,59.33a8.14,8.14,0,0,0-11.44.06Z"/></g></svg>