<svg id="Layer_1" data-name="Layer 1" xmlns="http://www.w3.org/2000/svg" viewBox="0 0 350 350"><defs><style>.cls-1{opacity:0.75;}.cls-2{opacity:0.5;}</style></defs><title>pebl-icons-wip</title><path class="cls-1" d="M340.09,111.19A7,7,0,0,0,328.37,108L285.06,151.3l-39.54-6.59-6.59-39.54,43.32-43.31A7,7,0,0,0,279,50.11a83.82,83.82,0,0,0-79.56,22.1C176.3,95.3,170,128.77,179.56,158L55.26,282.25A37.27,37.27,0,1,0,108,335l124.2-124.19c29.19,9.73,62.6,3.31,85.84-19.93A83.86,83.86,0,0,0,340.09,111.19Z"/><path class="cls-2" d="M86.71,206.8V230a5.64,5.64,0,0,0,4.43,5.51c3.06.69,6.13,1.24,9.21,1.67L179.56,158C170,128.77,176.3,95.3,199.39,72.21a84,84,0,0,1,16.44-12.79,118.59,118.59,0,0,0-13.18-17.26,5.68,5.68,0,0,0-7-1.08L175.61,52.67A89,89,0,0,0,147,36.13V13a5.63,5.63,0,0,0-4.42-5.51,118.42,118.42,0,0,0-51.45,0A5.63,5.63,0,0,0,86.67,13V36.18A91.84,91.84,0,0,0,58,52.71L38,41.12a5.61,5.61,0,0,0-7,1.09A116.56,116.56,0,0,0,5.26,86.77a5.64,5.64,0,0,0,2.59,6.6L27.92,105a91,91,0,0,0,0,33.07L7.85,149.61a5.7,5.7,0,0,0-2.59,6.6A117.24,117.24,0,0,0,31,200.77a5.65,5.65,0,0,0,7,1.09l20.07-11.59A88.92,88.92,0,0,0,86.71,206.8Zm30.1-123a37.69,37.69,0,1,1-37.68,37.68A37.73,37.73,0,0,1,116.81,83.76Z"/></svg>