<svg id="Layer_1" data-name="Layer 1" xmlns="http://www.w3.org/2000/svg" viewBox="0 0 350 350"><defs><style>.cls-1,.cls-2{fill:#666;stroke-miterlimit:10;}.cls-1{stroke:#666;}.cls-2{stroke:#fff;stroke-width:6px;}.cls-3{fill:none;}</style></defs><title>pebl-icons-wip</title><path class="cls-1" d="M237.65,161.44h-214c-5.91,0-10.7,3.24-10.7,7.24v14.49c0,4,4.79,7.24,10.7,7.24h214c5.91,0,10.71-3.24,10.71-7.24V168.68C248.36,164.68,243.56,161.44,237.65,161.44Z"/><path class="cls-1" d="M237.65,16.59h-214c-5.91,0-10.7,3.25-10.7,7.25V38.32c0,4,4.79,7.24,10.7,7.24h214c5.91,0,10.71-3.24,10.71-7.24V23.84C248.36,19.84,243.56,16.59,237.65,16.59Z"/><path class="cls-1" d="M237.65,89h-214c-5.91,0-10.7,3.24-10.7,7.24v14.48c0,4,4.79,7.25,10.7,7.25h214c5.91,0,10.71-3.25,10.71-7.25V96.26C248.36,92.26,243.56,89,237.65,89Z"/><polygon class="cls-1" points="22.42 316.46 81.83 335.5 102.91 314.42 63.05 274.56 22.42 316.46"/><path class="cls-2" d="M336.31,78.21,298.73,40.64a32.62,32.62,0,0,0-44.66-1.4l-118.35,101-14.52,12.4L96.51,173.76a21.75,21.75,0,0,0-6.41,22.65l7.76,25.47L67.57,252.17l57.22,57.21L155,279.14l25.41,7.78a21.75,21.75,0,0,0,22.68-6.41l21.14-24.76,12.4-14.51,101-118.36A32.62,32.62,0,0,0,336.31,78.21Z"/><rect class="cls-3" x="-4.35" y="-2.36" width="352.36" height="352.36"/></svg>