<svg id="Layer_1" data-name="Layer 1" xmlns="http://www.w3.org/2000/svg" viewBox="0 0 350 350"><defs><style>.cls-1,.cls-2{fill:#666;}.cls-2{stroke:#fff;stroke-miterlimit:10;stroke-width:6px;}</style></defs><title>pebl-icons-wip</title><path class="cls-1" d="M225.82,149.57,205.76,138a91,91,0,0,0,0-33.07l20.06-11.59a5.68,5.68,0,0,0,2.59-6.59,117.25,117.25,0,0,0-25.76-44.57,5.68,5.68,0,0,0-7-1.08L175.61,52.67A89,89,0,0,0,147,36.13V13a5.63,5.63,0,0,0-4.42-5.51,118.42,118.42,0,0,0-51.45,0A5.63,5.63,0,0,0,86.67,13V36.18A91.84,91.84,0,0,0,58,52.71L38,41.12a5.61,5.61,0,0,0-7,1.09A116.56,116.56,0,0,0,5.26,86.77a5.64,5.64,0,0,0,2.59,6.6L27.92,105a91,91,0,0,0,0,33.07L7.85,149.61a5.7,5.7,0,0,0-2.59,6.6A117.24,117.24,0,0,0,31,200.77a5.65,5.65,0,0,0,7,1.09l20.07-11.59A88.92,88.92,0,0,0,86.71,206.8V230a5.64,5.64,0,0,0,4.43,5.51,118.22,118.22,0,0,0,51.44,0A5.64,5.64,0,0,0,147,230V206.8a91.59,91.59,0,0,0,28.64-16.53l20.07,11.59a5.59,5.59,0,0,0,7-1.09,116.49,116.49,0,0,0,25.77-44.56A5.81,5.81,0,0,0,225.82,149.57Zm-109,9.56a37.69,37.69,0,1,1,37.69-37.69A37.73,37.73,0,0,1,116.81,159.13Z"/><path class="cls-2" d="M338.46,107.31a7,7,0,0,0-11.72-3.21l-43.32,43.32-39.54-6.59-6.58-39.54L280.61,58a7,7,0,0,0-3.3-11.74,83.82,83.82,0,0,0-79.55,22.09c-23.09,23.09-29.45,56.56-19.84,85.75L53.62,278.37a37.28,37.28,0,0,0,52.72,52.71L230.53,206.89c29.2,9.73,62.6,3.31,85.85-19.93A83.86,83.86,0,0,0,338.46,107.31Z"/></svg>