<svg xmlns="http://www.w3.org/2000/svg" viewBox="0 0 350 350"><defs><style>.cls-1,.cls-2{fill:#fff;}.cls-1{opacity:0.5;}.cls-2{opacity:0.75;}</style></defs><title>pebl-icons-light</title><g id="Bookmark_List" data-name="Bookmark List"><path class="cls-1" d="M237.82,5H14.18C8,5,3,8.36,3,12.5v15C3,31.64,8,35,14.18,35H237.82C244,35,249,31.64,249,27.5v-15C249,8.36,244,5,237.82,5Z"/><path class="cls-2" d="M110,344.16V79.39C110,64.26,123.21,52,139.5,52h177C332.79,52,346,64.26,346,79.39V344.16L228,280.25Z"/><path class="cls-1" d="M110,156H13.22C7,156,2,159.36,2,163.5v15c0,4.14,5,7.5,11.22,7.5H110Z"/><path class="cls-1" d="M110,80H13.22C7,80,2,83.36,2,87.5v15c0,4.14,5,7.5,11.22,7.5H110Z"/></g></svg>