<svg id="Layer_1" data-name="Layer 1" xmlns="http://www.w3.org/2000/svg" viewBox="0 0 350 350"><defs><style>.cls-1{opacity:0.75;}.cls-2{opacity:0.5;}</style></defs><title>pebl-icons-wip</title><path class="cls-1" d="M152.66,298.65h-84a19.59,19.59,0,0,1,0-39.17h71.55c-.3-3.12-.46-6.27-.46-9.46a98.25,98.25,0,0,1,2-19.92H68.67a48.61,48.61,0,0,0-19.58,4.1V63.61A19.56,19.56,0,0,1,68.67,44H264.54V155.71a97.47,97.47,0,0,1,29.38,14V24.44a9.82,9.82,0,0,0-9.79-9.79H68.67a49,49,0,0,0-49,49V279.06a49,49,0,0,0,49,49H178.44A98.71,98.71,0,0,1,152.66,298.65Z"/><path class="cls-2" d="M166.41,258.94l8.81,8.81a5.34,5.34,0,0,0,7.68-.09l49.34-50.83V328.64a5.41,5.41,0,0,0,5.4,5.39h12.58a5.41,5.41,0,0,0,5.39-5.39V216.83l49.3,50.83a5.41,5.41,0,0,0,7.68.09l8.81-8.81a5.4,5.4,0,0,0,0-7.64l-73.7-73.88a5.4,5.4,0,0,0-7.64,0l-73.7,73.88a5.45,5.45,0,0,0,0,7.64Z"/></svg>