<svg xmlns="http://www.w3.org/2000/svg" viewBox="0 0 350 350"><defs><style>.cls-1{opacity:0.5;}.cls-2{opacity:0.75;}</style></defs><title>pebl-icons-wip</title><g id="Layer_2" data-name="Layer 2"><path class="cls-1" d="M70.42,39.73h55.64a8,8,0,0,1,7.95,8v15.9a8,8,0,0,1-7.95,8H70.42a31.81,31.81,0,0,0-31.8,31.79V230.51a31.81,31.81,0,0,0,31.8,31.79h55.64a8,8,0,0,1,7.95,7.95v15.9a8,8,0,0,1-7.95,8H70.42A63.6,63.6,0,0,1,6.83,230.51V103.32A63.61,63.61,0,0,1,70.42,39.73Z"/><path class="cls-2" d="M223.5,52.65l-13,13A7.87,7.87,0,0,0,210.65,77l74.92,72.73H120.76a8,8,0,0,0-8,7.95v18.55a8,8,0,0,0,8,7.95H285.57l-74.92,72.67a8,8,0,0,0-.13,11.32l13,13a8,8,0,0,0,11.26,0l108.9-108.64a7.94,7.94,0,0,0,0-11.26L234.76,52.58a8,8,0,0,0-11.26.07Z"/></g></svg>