<svg role="img" aria-labelledby="Bookmark List" xmlns="http://www.w3.org/2000/svg" viewBox="0 0 350 350"><defs><style>.cls-1{opacity:0.5;}.cls-2{opacity:0.75;}</style></defs><title>pebl-icons-wip</title>
<g id="bookmark-list" data-name="Bookmark List"><path class="cls-1" d="M237.82,2H14.18C8,2,3,5.36,3,9.5v15C3,28.64,8,32,14.18,32H237.82C244,32,249,28.64,249,24.5V9.5C249,5.36,244,2,237.82,2Z"/><path class="cls-2" d="M110,346.16V81.39C110,66.26,123.21,54,139.5,54h177C332.79,54,346,66.26,346,81.39V346.16L228,282.25Z"/><path class="cls-1" d="M110,153H13.22C7,153,2,156.36,2,160.5v15c0,4.14,5,7.5,11.22,7.5H110Z"/><path class="cls-1" d="M110,77H13.22C7,77,2,80.36,2,84.5v15c0,4.14,5,7.5,11.22,7.5H110Z"/></g></svg>