<svg id="Layer_1" data-name="Layer 1" xmlns="http://www.w3.org/2000/svg" viewBox="0 0 350 350"><defs><style>.cls-1{opacity:0.5;}.cls-2{opacity:0.75;}</style></defs><title>pebl-icons-wip</title><path class="cls-1" d="M237.57,15H23.93c-5.9,0-10.68,3.24-10.68,7.24V36.72c0,4,4.78,7.24,10.68,7.24H237.57c5.89,0,10.68-3.24,10.68-7.24V22.23C248.25,18.23,243.46,15,237.57,15Z"/><path class="cls-2" d="M116,340.3V87.19C116,72.73,128.65,61,144.2,61h169c15.55,0,28.16,11.72,28.16,26.18V340.3L228.7,279.2Z"/><path class="cls-1" d="M116,159.84H23.93c-5.9,0-10.68,3.24-10.68,7.24v14.48c0,4,4.78,7.25,10.68,7.25H116Z"/><path class="cls-1" d="M116,87.41H23.93c-5.9,0-10.68,3.24-10.68,7.24v14.49c0,4,4.78,7.24,10.68,7.24H116Z"/></svg>