<svg xmlns="http://www.w3.org/2000/svg" viewBox="0 0 350 350"><defs><style>.cls-1,.cls-2{fill:#fff;}.cls-1{opacity:0.75;}.cls-2{opacity:0.5;}</style></defs><title>pebl-icons-light</title><g id="New_Bookmark" data-name="New Bookmark"><path class="cls-1" d="M314.37,15H203.44A128.32,128.32,0,0,1,79,209.83v139l134.5-73,134.5,73V46.3C348,29,333,15,314.37,15Z"/><path class="cls-2" d="M154.18,65H101V11.82A11.82,11.82,0,0,0,89.18,0H77.82A11.82,11.82,0,0,0,66,11.82V65H12.82A11.82,11.82,0,0,0,1,76.82V89.18A11.82,11.82,0,0,0,12.82,101H66v53.18A11.82,11.82,0,0,0,77.82,166H89.64a11.82,11.82,0,0,0,11.81-11.82l2-53.18h50.68A11.82,11.82,0,0,0,166,89.18V76.82A11.82,11.82,0,0,0,154.18,65Z"/></g></svg>