<svg xmlns="http://www.w3.org/2000/svg" viewBox="0 0 350 350"><defs><style>.cls-1{opacity:0.5;}.cls-2{opacity:0.75;}</style></defs><title>pebl-icons-wip</title><g id="Upload_Book" data-name="Upload Book"><path class="cls-1" d="M158.75,250l9.8,9.85a5.92,5.92,0,0,0,8.55-.1L232,203V328a6,6,0,0,0,6,6H252a6,6,0,0,0,6-6V203l54.85,56.83a6,6,0,0,0,8.55.1l9.8-9.85a6.05,6.05,0,0,0,0-8.54l-82-82.61a6,6,0,0,0-8.5,0l-82,82.61a6.1,6.1,0,0,0,.05,8.54Z"/><path class="cls-2" d="M134.72,320h-66a22,22,0,0,1-21.57-26.4C49,283.87,59.09,276,69,276h51.28a136.76,136.76,0,0,1-1.38-19.32A134.44,134.44,0,0,1,320,140V13A11,11,0,0,0,309.05,2H68.75A54.75,54.75,0,0,0,14,56.75v240.5A54.75,54.75,0,0,0,68.75,352h89.8A134.89,134.89,0,0,1,134.72,320Z"/></g></svg>